:FULLY-SPECIFIED
:FORCE-ALL-JOINTS-BE-3DOF
:DEGREES
388
root 9.62454 16.9801 19.6289 6.87098 1.6252 -5.85714
lfemur -42.9005 3.952 -14.6308
ltibia 48.5304 -0 0
lfoot -12.5867 12.2661 0.108203
ltoes -6.08985 0 0
rfemur 4.47232 6.51089 32.3713
rtibia 13.1969 -0 0
rfoot -14.0787 5.22205 0.218146
rtoes -16.5256 0 0
lowerback -7.01669 1.93672 2.29246
upperback -0.701337 2.29241 3.21629
thorax 3.15834 1.15221 2.3345
lowerneck -19.7928 -6.46969 -12.903
upperneck 21.5378 -8.42569 12.9787
head 11.4253 -3.37873 5.60981
lclavicle -4.83573e-15 -3.88751e-14 -5.25335e-31
lhumerus -52.4169 -13.2337 96.9467
lradius 27.4442 -0 0
lwrist 10.6045 0 0
lhand -11.1984 -21.2244 0.029132
lfingers 7.12502 -0 0
lthumb 14.8267 8.18343 0.0179032
rclavicle -4.83573e-15 -3.88751e-14 -5.25335e-31
rhumerus -30.8152 16.9852 -85.2444
rradius 42.4045 -0 0
rwrist -20.5329 0 0
rhand -30.3303 -23.7376 0.00146444
rfingers 7.12502 -0 0
rthumb -3.63639 -53.6854 0.00135274
389
root 9.6482 16.9687 19.8525 6.92373 1.43484 -6.03532
lfemur -43.1405 3.83664 -14.4095
ltibia 47.3422 -0 0
lfoot -12.3114 12.2081 0.0997684
ltoes -6.56407 0 0
rfemur 5.62041 6.50192 32.5309
rtibia 12.0732 -0 0
rfoot -13.5883 5.4177 0.219104
rtoes -16.4524 0 0
lowerback -7.13414 2.05152 2.41984
upperback -0.693571 2.42844 3.25256
thorax 3.23269 1.22117 2.31818
lowerneck -19.7555 -6.47334 -12.9321
upperneck 21.5231 -8.43152 13.0047
head 11.416 -3.38209 5.62346
lclavicle -4.38663e-15 -3.84951e-14 -6.03318e-31
lhumerus -52.7226 -12.96 96.9176
lradius 27.4198 -0 0
lwrist 10.4409 0 0
lhand -10.925 -21.1902 0.0284312
lfingers 7.12502 -0 0
lthumb 15.0899 8.19681 0.0169582
rclavicle -4.38663e-15 -3.84951e-14 -6.03318e-31
rhumerus -30.6831 16.8503 -85.3114
rradius 42.2071 -0 0
rwrist -20.3458 0 0
rhand -30.2716 -23.7053 0.00118652
rfingers 7.12502 -0 0
rthumb -3.57965 -53.654 0.00108036
390
root 9.67157 16.957 20.0708 6.97678 1.24593 -6.21001
lfemur -43.3546 3.72074 -14.1912
ltibia 46.1285 -0 0
lfoot -12.0302 12.143 0.0909038
ltoes -7.04203 0 0
rfemur 6.75319 6.48914 32.6818
rtibia 10.9643 -0 0
rfoot -13.0918 5.60989 0.218044
rtoes -16.3804 0 0
lowerback -7.25199 2.16436 2.54414
upperback -0.686114 2.56172 3.2883
thorax 3.30722 1.28875 2.30268
lowerneck -19.718 -6.47596 -12.9611
upperneck 21.5086 -8.43589 13.0306
head 11.4065 -3.38483 5.63728
lclavicle -3.93136e-15 -3.8098e-14 -6.7731e-31
lhumerus -53.0157 -12.6922 96.8885
lradius 27.3974 -0 0
lwrist 10.2723 0 0
lhand -10.649 -21.1575 0.02751
lfingers 7.12502 -0 0
lthumb 15.3557 8.20852 0.0158988
rclavicle -3.93136e-15 -3.8098e-14 -6.7731e-31
rhumerus -30.5597 16.71 -85.3796
rradius 42.0031 -0 0
rwrist -20.1543 0 0
rhand -30.2119 -23.675 0.000869416
rfingers 7.12502 -0 0
rthumb -3.52202 -53.6246 0.000770911
391
root 9.69452 16.9451 20.2827 7.02985 1.05893 -6.38058
lfemur -43.5437 3.60452 -13.9773
ltibia 44.8949 -0 0
lfoot -11.7448 12.0715 0.0817684
ltoes -7.52139 0 0
rfemur 7.86704 6.47269 32.8235
rtibia 9.87529 -0 0
rfoot -12.5912 5.79759 0.214992
rtoes -16.3097 0 0
lowerback -7.36972 2.27491 2.66498
upperback -0.679002 2.69189 3.32333
thorax 3.38159 1.35478 2.28801
lowerneck -19.6805 -6.47751 -12.9899
upperneck 21.4946 -8.43875 13.0559
head 11.3969 -3.38692 5.65119
lclavicle -3.47422e-15 -3.76847e-14 -7.46132e-31
lhumerus -53.295 -12.4306 96.8591
lradius 27.3765 -0 0
lwrist 10.0991 0 0
lhand -10.3716 -21.1264 0.0263859
lfingers 7.12502 -0 0
lthumb 15.6228 8.21856 0.0147448
rclavicle -3.47422e-15 -3.76847e-14 -7.46132e-31
rhumerus -30.4454 16.5652 -85.4489
rradius 41.7934 -0 0
rwrist -19.9591 0 0
rhand -30.1516 -23.647 0.000518174
rfingers 7.12502 -0 0
rthumb -3.46381 -53.5975 0.000429327
392
root 9.7169 16.9329 20.4872 7.08269 0.874285 -6.54637
lfemur -43.7085 3.48819 -13.7688
ltibia 43.647 -0 0
lfoot -11.4567 11.994 0.0725141
ltoes -7.99979 0 0
rfemur 8.95836 6.45275 32.9552
rtibia 8.81116 -0 0
rfoot -12.0887 5.97978 0.210003
rtoes -16.2408 0 0
lowerback -7.4868 2.38283 2.78196
upperback -0.672272 2.81859 3.35751
thorax 3.45544 1.41907 2.27418
lowerneck -19.6432 -6.47797 -13.0184
upperneck 21.4812 -8.44003 13.0807
head 11.3874 -3.38834 5.66509
lclavicle -3.01948e-15 -3.72562e-14 -8.08678e-31
lhumerus -53.5595 -12.1755 96.8292
lradius 27.3565 -0 0
lwrist 9.92148 0 0
lhand -10.0941 -21.0968 0.0250782
lfingers 7.12502 -0 0
lthumb 15.8901 8.22697 0.0135163
rclavicle -3.01948e-15 -3.72562e-14 -8.08678e-31
rhumerus -30.3403 16.4164 -85.5192
rradius 41.5791 -0 0
rwrist -19.761 0 0
rhand -30.091 -23.6217 0.000138915
rfingers 7.12502 -0 0
rthumb -3.40531 -53.5731 6.15559e-05
